<?xml version="1.0" encoding="utf-8"?>
<!-- Generator: Adobe Illustrator 27.5.0, SVG Export Plug-In . SVG Version: 6.00 Build 0)  -->
<svg version="1.1" xmlns="http://www.w3.org/2000/svg" xmlns:xlink="http://www.w3.org/1999/xlink" x="0px" y="0px"
	 viewBox="0 0 500 500" style="enable-background:new 0 0 500 500;" xml:space="preserve">
<g id="BACKGROUND">
	<rect x="0.094" y="-0.063" style="fill:#FF4D43;" width="500" height="500"/>
</g>
<g id="OBJECTS">
	<g>
		<g>
			<path style="fill:#FFFFFF;" d="M226.817,68.053c-0.017-0.506-0.044-1.011-0.082-1.516c-0.164-2.141-0.403-4.593-1.817-6.305
				c-1.211-1.465-3.086-1.797-4.866-1.998c-2.254-0.255-4.518-0.409-6.785-0.496c-4.59-0.175-9.185-0.074-13.776,0.028
				c-2.358,0.052-4.719,0.105-7.07,0.292c-2.888,0.23-5.858,0.653-7.203,3.539c-1.207,2.59-1.058,5.879-1.073,8.666
				c-0.014,2.499-0.022,4.999,0.078,7.495c0.13,3.24,0.322,7.462,3.82,8.883c1.867,0.759,4.122,0.928,6.117,1.058
				c2.114,0.138,4.234,0.121,6.351,0.152c4.44,0.066,8.88-0.086,13.318-0.174c3.083-0.061,6.248-0.096,9.198-1.103
				c2.547-0.869,3.211-3.629,3.555-6.023c0.342-2.379,0.255-4.792,0.251-7.188C226.831,71.595,226.878,69.823,226.817,68.053z"/>
			<path style="fill:#FF4D43;" d="M212.224,72.708c-3.729-2.19-7.377-4.333-11.059-6.496c0,4.365,0,8.656,0,12.994
				C204.86,77.036,208.508,74.892,212.224,72.708z"/>
		</g>
		<g>
			<path style="fill:#FFFFFF;" d="M263.343,66.105c1.247,0,2.424,0,3.651,0c0,6.567,0,13.111,0,19.686c-1.167,0-2.34,0-3.58,0
				c0-0.671,0-1.331,0-2.069c-0.339,0.332-0.601,0.595-0.871,0.85c-0.85,0.803-1.746,1.512-3.003,1.52
				c-1.137,0.008-2.007-0.529-2.322-1.624c-0.223-0.775-0.361-1.602-0.37-2.407c-0.055-5.224-0.064-10.447-0.087-15.671
				c0-0.072,0.012-0.145,0.022-0.254c1.177,0,2.351,0,3.583,0c0.007,0.157,0.022,0.324,0.023,0.491
				c0.023,5.019,0.044,10.039,0.065,15.058c0.001,0.146-0.008,0.293,0.01,0.437c0.077,0.612,0.52,0.95,1.082,0.707
				c0.45-0.195,0.843-0.548,1.219-0.878c0.495-0.434,0.652-0.986,0.644-1.67c-0.049-4.509-0.05-9.018-0.066-13.526
				C263.342,66.554,263.343,66.353,263.343,66.105z"/>
			<path style="fill:#FFFFFF;" d="M244.324,59.497c-0.655,2.177-1.288,4.283-1.922,6.389c-0.896,2.974-1.795,5.946-2.685,8.922
				c-0.066,0.219-0.094,0.457-0.093,0.686c0.014,3.254,0.036,6.507,0.056,9.761c0.001,0.159,0,0.318,0,0.519
				c-1.268,0-2.51,0-3.807,0c0-0.166,0.001-0.322,0-0.479c-0.016-3.268-0.024-6.536-0.059-9.805
				c-0.004-0.383-0.12-0.775-0.236-1.146c-1.504-4.784-3.016-9.565-4.527-14.348c-0.043-0.135-0.081-0.272-0.14-0.474
				c1.296,0,2.533-0.009,3.769,0.016c0.11,0.002,0.273,0.22,0.313,0.364c0.589,2.121,1.161,4.248,1.737,6.373
				c0.303,1.118,0.608,2.237,1.002,3.361c0.192-0.738,0.388-1.475,0.576-2.214c0.636-2.501,1.276-5.002,1.897-7.507
				c0.076-0.308,0.184-0.431,0.517-0.426C241.901,59.509,243.08,59.497,244.324,59.497z"/>
			<path style="fill:#FFFFFF;" d="M243.719,75.928c0-1.501-0.042-3.005,0.018-4.504c0.03-0.733,0.172-1.484,0.398-2.184
				c0.566-1.747,1.742-2.888,3.6-3.166c2.08-0.312,3.935,0.1,5.224,1.936c0.654,0.931,0.911,2.019,0.999,3.132
				c0.076,0.958,0.085,1.922,0.092,2.884c0.015,2.1,0.036,4.2,0,6.299c-0.013,0.737-0.113,1.489-0.299,2.202
				c-0.564,2.162-2.485,3.598-4.748,3.624c-2.276,0.026-4.317-1.406-4.89-3.57c-0.258-0.974-0.33-2.009-0.383-3.022
				c-0.063-1.207-0.015-2.42-0.015-3.63C243.716,75.928,243.718,75.928,243.719,75.928z M250.486,76.121c-0.017,0-0.034,0-0.051,0
				c0-1.532,0.012-3.063-0.008-4.594c-0.005-0.403-0.058-0.819-0.173-1.205c-0.205-0.689-0.746-1.042-1.453-1.029
				c-0.696,0.013-1.215,0.403-1.392,1.105c-0.092,0.364-0.147,0.748-0.146,1.123c0.006,3.019,0.023,6.038,0.056,9.057
				c0.005,0.431,0.067,0.876,0.187,1.289c0.2,0.688,0.743,1.047,1.445,1.042c0.657-0.004,1.185-0.385,1.372-1.075
				c0.109-0.402,0.15-0.833,0.155-1.251C250.497,79.096,250.486,77.609,250.486,76.121z"/>
			<path style="fill:#FFFFFF;" d="M295.658,67.769c0.742-0.54,1.404-1.16,2.18-1.559c1.951-1.003,3.913-0.106,4.409,2.025
				c0.262,1.127,0.413,2.302,0.435,3.459c0.055,2.902,0.036,5.807-0.015,8.71c-0.019,1.073-0.102,2.167-0.345,3.208
				c-0.536,2.3-2.716,3.2-4.759,1.996c-0.691-0.407-1.283-0.984-1.936-1.497c0,0.327,0.005,0.699-0.001,1.071
				c-0.013,0.766,0.083,0.686-0.671,0.691c-0.773,0.005-1.546,0.005-2.32,0.002c-0.579-0.002-0.582-0.005-0.581-0.571
				c0.005-4.625,0.01-9.25,0.016-13.875c0.005-3.823,0.017-7.645,0.006-11.467c-0.001-0.43,0.132-0.544,0.544-0.531
				c0.875,0.027,1.751,0.023,2.626-0.005c0.361-0.011,0.44,0.121,0.438,0.453c-0.017,2.422-0.018,4.844-0.024,7.265
				C295.657,67.373,295.658,67.601,295.658,67.769z M295.657,75.949c-0.01,0-0.02,0-0.03,0c0,1.764,0.041,3.53-0.02,5.291
				c-0.024,0.7,0.279,1.051,0.831,1.311c0.171,0.08,0.347,0.155,0.528,0.206c0.851,0.242,1.488-0.085,1.724-0.933
				c0.117-0.417,0.187-0.86,0.19-1.292c0.02-3.105,0.025-6.211,0.015-9.316c-0.001-0.402-0.078-0.815-0.189-1.203
				c-0.166-0.578-0.531-0.814-1.135-0.839c-0.587-0.025-1.068,0.229-1.536,0.542c-0.283,0.189-0.387,0.424-0.384,0.766
				C295.665,72.304,295.657,74.127,295.657,75.949z"/>
			<path style="fill:#FFFFFF;" d="M285.407,83.846c-0.473,0.445-0.872,0.842-1.296,1.211c-0.683,0.596-1.448,1.038-2.38,1.091
				c-1.489,0.086-2.503-0.749-2.77-2.329c-0.114-0.673-0.179-1.362-0.181-2.044c-0.015-5.019-0.004-10.037-0.016-15.056
				c-0.001-0.407,0.089-0.566,0.526-0.552c0.918,0.03,1.838,0.025,2.756-0.004c0.409-0.013,0.515,0.122,0.514,0.521
				c-0.012,4.858-0.007,9.716-0.007,14.574c0,0.262-0.007,0.526,0.009,0.787c0.037,0.625,0.389,0.889,0.997,0.763
				c0.817-0.17,1.849-1.422,1.849-2.246c0.003-4.61,0.005-9.22,0.008-13.83c0-0.567,0.003-0.569,0.572-0.571
				c0.919-0.003,1.839,0.008,2.757-0.011c0.327-0.007,0.466,0.072,0.465,0.432c-0.014,6.288-0.019,12.575-0.018,18.863
				c0,0.309-0.079,0.445-0.417,0.438c-0.992-0.019-1.984-0.017-2.976-0.001c-0.312,0.005-0.407-0.111-0.397-0.408
				C285.419,84.957,285.407,84.438,285.407,83.846z"/>
			<path style="fill:#FFFFFF;" d="M312.023,78.914c1.233,0,2.383-0.005,3.532,0.009c0.088,0.001,0.252,0.139,0.251,0.212
				c-0.018,1.454,0.079,2.932-0.647,4.276c-0.915,1.693-2.346,2.585-4.266,2.681c-2.456,0.123-4.281-0.9-5.257-2.941
				c-0.455-0.952-0.653-1.971-0.654-3.012c-0.002-2.902-0.018-5.807,0.079-8.706c0.058-1.753,0.653-3.328,2.085-4.5
				c2.437-1.993,7.446-1.538,8.436,2.99c0.167,0.764,0.236,1.558,0.26,2.341c0.04,1.253,0.006,2.508,0.001,3.763
				c-0.003,0.58-0.005,0.581-0.566,0.582c-1.969,0.004-3.938,0.007-5.908,0.01c-0.174,0-0.348,0-0.518,0
				c-0.031,0.058-0.069,0.094-0.068,0.131c0.009,1.457,0.011,2.914,0.043,4.371c0.006,0.269,0.1,0.547,0.205,0.799
				c0.269,0.644,0.774,0.933,1.5,0.898c0.653-0.032,1.163-0.365,1.322-1.014c0.13-0.53,0.132-1.093,0.165-1.643
				C312.042,79.77,312.023,79.377,312.023,78.914z M312.093,73.604c-0.051-1.153-0.048-2.256-0.166-3.347
				c-0.087-0.8-0.578-1.105-1.465-1.106c-0.949-0.001-1.448,0.305-1.539,1.128c-0.111,1.008-0.102,2.03-0.123,3.047
				c-0.002,0.091,0.153,0.264,0.238,0.266C310.023,73.61,311.009,73.604,312.093,73.604z"/>
			<path style="fill:#FFFFFF;" d="M271.13,63.313c-0.93,0-1.83,0.008-2.73-0.003c-0.43-0.005-1,0.106-1.247-0.12
				c-0.219-0.2-0.087-0.793-0.093-1.214c-0.009-0.671,0.017-1.343-0.012-2.013c-0.015-0.362,0.124-0.44,0.454-0.441
				c2.991-0.001,5.982-0.016,8.973-0.027c0.846-0.003,1.693,0.011,2.538-0.016c0.345-0.011,0.419,0.12,0.415,0.43
				c-0.014,0.977-0.018,1.955,0.002,2.932c0.007,0.344-0.107,0.457-0.449,0.452c-1.036-0.014-2.072-0.001-3.108,0.002
				c-0.23,0.001-0.46,0-0.743,0c0,0.324,0,0.598,0,0.871c0.005,7.018,0.011,14.035,0.016,21.053c0.001,0.66-0.001,0.662-0.658,0.663
				c-0.905,0.001-1.809,0-2.714-0.001c-0.583-0.001-0.59-0.002-0.591-0.608c-0.007-3.925-0.012-7.849-0.017-11.774
				c-0.005-3.224-0.008-6.449-0.014-9.673C271.152,63.67,271.139,63.514,271.13,63.313z"/>
		</g>
	</g>
	<g>
		<g>
			
				<ellipse transform="matrix(0.3859 -0.9225 0.9225 0.3859 -238.7473 294.467)" style="fill:#FFFFFF;" cx="101.823" cy="326.574" rx="27.806" ry="27.806"/>
			<path style="fill:#FF4D43;" d="M120.59,322.436c-0.015-0.445-0.038-0.89-0.072-1.334c-0.144-1.884-0.354-4.042-1.599-5.549
				c-1.065-1.29-2.716-1.581-4.282-1.759c-1.984-0.224-3.977-0.36-5.972-0.436c-4.04-0.154-8.084-0.065-12.124,0.025
				c-2.076,0.046-4.153,0.092-6.223,0.257c-2.542,0.202-5.156,0.575-6.34,3.115c-1.063,2.28-0.931,5.174-0.944,7.627
				c-0.012,2.199-0.019,4.4,0.069,6.597c0.114,2.852,0.284,6.567,3.362,7.818c1.644,0.668,3.628,0.817,5.383,0.931
				c1.861,0.121,3.726,0.107,5.589,0.134c3.908,0.058,7.815-0.076,11.722-0.154c2.713-0.054,5.499-0.084,8.095-0.97
				c2.241-0.765,2.826-3.194,3.129-5.301c0.301-2.094,0.224-4.218,0.221-6.326C120.603,325.553,120.644,323.993,120.59,322.436z
				 M98.013,332.252c0-3.818,0-7.595,0-11.437c3.241,1.904,6.451,3.789,9.733,5.717C104.477,328.454,101.265,330.341,98.013,332.252
				z"/>
		</g>
		<g>
			<path style="fill:#FFFFFF;" d="M397.215,170.529h-40.049c-2.457,0-4.45,1.992-4.45,4.45v26.064c0,2.458,1.992,4.45,4.45,4.45
				h14.157l5.868,7.621l5.868-7.621h14.157c2.458,0,4.45-1.992,4.45-4.45v-26.064C401.665,172.521,399.673,170.529,397.215,170.529z
				"/>
			<rect x="360.106" y="177.124" style="fill:#454258;" width="33.215" height="1.112"/>
			<rect x="360.106" y="180.143" style="fill:#454258;" width="33.215" height="1.113"/>
			<rect x="360.106" y="183.163" style="fill:#454258;" width="33.215" height="1.112"/>
			<rect x="360.106" y="186.183" style="fill:#454258;" width="6.595" height="1.113"/>
			<rect x="369.006" y="186.183" style="fill:#454258;" width="24.316" height="1.113"/>
			<rect x="360.106" y="189.202" style="fill:#454258;" width="33.215" height="1.113"/>
			<rect x="360.106" y="192.222" style="fill:#454258;" width="20.66" height="1.112"/>
			<rect x="383.23" y="192.222" style="fill:#454258;" width="10.092" height="1.112"/>
			<rect x="360.106" y="195.241" style="fill:#454258;" width="33.215" height="1.113"/>
			<rect x="360.106" y="198.261" style="fill:#454258;" width="17.8" height="1.112"/>
		</g>
		<g>
			<g>
				<path style="fill:#FFFFFF;" d="M410.67,359.519c-12.349,0-22.394-10.046-22.394-22.393c0-12.348,10.046-22.394,22.394-22.394
					c12.347,0,22.394,10.046,22.394,22.394C433.063,349.473,423.017,359.519,410.67,359.519z M410.67,317.175
					c-11.001,0-19.951,8.95-19.951,19.951c0,11,8.95,19.95,19.951,19.95c11,0,19.951-8.95,19.951-19.95
					C430.62,326.125,421.67,317.175,410.67,317.175z"/>
			</g>
			<g>
				<path style="fill:#454258;" d="M421.959,338.347H410.67c-0.675,0-1.222-0.547-1.222-1.221v-17.102
					c0-0.674,0.547-1.222,1.222-1.222c0.674,0,1.221,0.547,1.221,1.222v15.88h10.068c0.674,0,1.221,0.547,1.221,1.222
					C423.18,337.8,422.633,338.347,421.959,338.347z"/>
			</g>
		</g>
		<g>
			<path style="fill:#FFFFFF;" d="M81.121,388.453c-0.238,0-0.46-0.092-0.628-0.26c-0.168-0.168-0.26-0.392-0.26-0.628v-5.13h-5.13
				c-0.237,0-0.46-0.093-0.628-0.26c-0.168-0.168-0.26-0.391-0.26-0.628c0-0.49,0.398-0.888,0.888-0.888l5.131,0.001v-5.131
				c0-0.49,0.398-0.888,0.888-0.888c0.489,0,0.887,0.398,0.887,0.888v5.131h5.132c0.489,0,0.887,0.398,0.888,0.887
				c0,0.49-0.398,0.888-0.887,0.888h-5.132v5.13C82.009,388.055,81.611,388.453,81.121,388.453z"/>
			<path style="fill:#FFFFFF;" d="M446.102,272.475c-0.237,0-0.461-0.092-0.628-0.26c-0.168-0.168-0.26-0.392-0.26-0.628v-5.13
				h-5.13c-0.237,0-0.46-0.093-0.628-0.26c-0.168-0.168-0.26-0.391-0.26-0.628c0-0.49,0.398-0.888,0.888-0.888l5.13,0.001v-5.131
				c0-0.491,0.398-0.888,0.888-0.888c0.489,0,0.887,0.398,0.887,0.887v5.132h5.132c0.489,0,0.887,0.398,0.888,0.887
				c0,0.49-0.398,0.888-0.887,0.888h-5.131v5.13C446.991,272.077,446.592,272.475,446.102,272.475z"/>
			<path style="fill:#FFFFFF;" d="M115.851,160.829c-0.237,0-0.461-0.092-0.628-0.26c-0.167-0.168-0.259-0.392-0.259-0.628v-5.13
				h-5.131c-0.237,0-0.46-0.093-0.628-0.26c-0.168-0.167-0.26-0.391-0.26-0.628c0-0.49,0.398-0.888,0.888-0.888l5.131,0.001v-5.131
				c0-0.49,0.398-0.888,0.888-0.888c0.489,0,0.887,0.398,0.887,0.887v5.132h5.132c0.488,0,0.886,0.398,0.888,0.887
				c0,0.49-0.398,0.888-0.887,0.888h-5.132v5.13C116.739,160.431,116.341,160.829,115.851,160.829z"/>
			<path style="fill:#FFFFFF;" d="M57.988,291.042c0-2.215,1.795-4.012,4.012-4.012c2.215,0,4.011,1.797,4.011,4.012
				c0,2.216-1.795,4.012-4.011,4.012C59.784,295.054,57.988,293.257,57.988,291.042z"/>
			<path style="fill:none;stroke:#454258;stroke-width:1.9162;stroke-miterlimit:10;" d="M105.294,279.449
				c0-1.689,1.37-3.059,3.06-3.059c1.689,0,3.058,1.37,3.058,3.059c0,1.689-1.369,3.059-3.058,3.059
				C106.664,282.509,105.294,281.139,105.294,279.449z"/>
			<path style="fill:none;stroke:#454258;stroke-width:1.9162;stroke-miterlimit:10;" d="M407.611,294.837
				c0-1.688,1.369-3.059,3.059-3.059c1.689,0,3.058,1.371,3.058,3.059c0,1.689-1.369,3.06-3.058,3.06
				C408.98,297.897,407.611,296.526,407.611,294.837z"/>
			<path style="fill:none;stroke:#454258;stroke-width:1.9162;stroke-miterlimit:10;" d="M231.692,401.775
				c0-1.689,1.37-3.06,3.06-3.06c1.689,0,3.058,1.371,3.058,3.06c0,1.689-1.37,3.06-3.058,3.06
				C233.062,404.835,231.692,403.464,231.692,401.775z"/>
			<path style="fill:none;stroke:#454258;stroke-width:1.9162;stroke-miterlimit:10;" d="M341.079,147.016
				c0-1.689,1.37-3.06,3.06-3.06c1.689,0,3.058,1.371,3.058,3.06s-1.37,3.06-3.058,3.06
				C342.449,150.076,341.079,148.705,341.079,147.016z"/>
			<path style="fill:#FFFFFF;" d="M330.469,200.541c0-2.215,1.795-4.012,4.012-4.012c2.215,0,4.011,1.797,4.011,4.012
				s-1.795,4.012-4.011,4.012C332.264,204.553,330.469,202.757,330.469,200.541z"/>
			<path style="fill:#FFFFFF;" d="M389.31,371.059c0-2.215,1.795-4.012,4.012-4.012c2.215,0,4.011,1.797,4.011,4.012
				c0,2.216-1.795,4.013-4.011,4.013C391.105,375.072,389.31,373.275,389.31,371.059z"/>
		</g>
		<g>
			
				<ellipse transform="matrix(0.7071 -0.7071 0.7071 0.7071 -18.6176 371.5536)" style="fill:#FFFFFF;" cx="439.196" cy="208.25" rx="16.016" ry="16.016"/>
			<polygon style="fill:#FF4D43;" points="434.951,199.751 434.951,216.749 447.777,208.25 			"/>
		</g>
		<g>
			<rect x="81.121" y="187.968" style="fill:#FFFFFF;" width="89.695" height="69.188"/>
			<rect x="90.481" y="236.32" style="fill:#2D4F76;" width="20.236" height="13.754"/>
			<rect x="115.851" y="236.32" style="fill:#2D4F76;" width="20.235" height="13.754"/>
			<rect x="98.837" y="194.953" style="fill:#DBE2E8;" width="54.265" height="36.885"/>
			<rect x="141.221" y="236.32" style="fill:#2D4F76;" width="20.236" height="13.754"/>
			<g>
				<path style="fill:#2D4F76;" d="M94.13,219.487c-0.207,0-0.414-0.085-0.563-0.253l-4.733-5.339c-0.253-0.284-0.253-0.713,0-0.997
					l4.733-5.339c0.276-0.313,0.751-0.34,1.062-0.064c0.312,0.275,0.34,0.751,0.064,1.061l-4.291,4.84l4.291,4.84
					c0.275,0.311,0.247,0.786-0.064,1.062C94.486,219.424,94.308,219.487,94.13,219.487z"/>
			</g>
			<g>
				<path style="fill:#2D4F76;" d="M157.808,219.487c0.207,0,0.414-0.085,0.562-0.253l4.734-5.339c0.253-0.284,0.253-0.713,0-0.997
					l-4.734-5.339c-0.275-0.313-0.751-0.34-1.061-0.064c-0.311,0.275-0.339,0.751-0.064,1.061l4.291,4.84l-4.291,4.84
					c-0.275,0.311-0.247,0.786,0.064,1.062C157.452,219.424,157.63,219.487,157.808,219.487z"/>
			</g>
			<circle style="fill:#FFD264;" cx="139.947" cy="213.396" r="7.748"/>
			<path style="fill:#FFFFFF;" d="M141.221,218.52c0,1.61-1.305,2.915-2.915,2.915h-17.301c-1.609,0-2.915-1.305-2.915-2.915l0,0
				c0-1.609,1.305-2.915,2.915-2.915h17.301C139.916,215.605,141.221,216.91,141.221,218.52L141.221,218.52z"/>
			<path style="fill:#FFFFFF;" d="M128.476,212.158c0,0.71-0.575,1.285-1.285,1.285H112.46c-0.71,0-1.285-0.575-1.285-1.285l0,0
				c0-0.71,0.575-1.285,1.285-1.285h14.731C127.901,210.873,128.476,211.449,128.476,212.158L128.476,212.158z"/>
			<path style="fill:#FFFFFF;" d="M129.656,204.096c0,0.857-0.695,1.551-1.552,1.551h-9.873c-0.856,0-1.551-0.694-1.551-1.551l0,0
				c0-0.856,0.695-1.551,1.551-1.551h9.873C128.961,202.544,129.656,203.24,129.656,204.096L129.656,204.096z"/>
		</g>
		<g>
			<polygon style="fill-rule:evenodd;clip-rule:evenodd;fill:#F3D5B6;" points="103.823,462.254 173.087,477.475 185.045,423.055 
				235.637,353.549 132.681,330.926 			"/>
			<path style="fill-rule:evenodd;clip-rule:evenodd;fill:#D2B79A;" d="M138.708,354.79c10.331,16.095,25.696,40.619,8.82,59.461
				C140.013,408.447,130.252,377.563,138.708,354.79z"/>
			<g>
				<path style="fill-rule:evenodd;clip-rule:evenodd;fill:#2D4F76;" d="M174.966,144.34h99.962
					c19.357,0,35.195,11.327,35.195,25.172v189.805c0,13.844-15.837,25.173-35.195,25.173h-99.962
					c-19.358,0-35.196-11.329-35.196-25.173V169.512C139.771,155.667,155.608,144.34,174.966,144.34z"/>
				<path style="fill-rule:evenodd;clip-rule:evenodd;fill:#FFFFFF;" d="M150.701,164.478h148.492c0.287,0,0.526,0.159,0.526,0.354
					v197.153c0,0.195-0.238,0.354-0.526,0.354H150.701c-0.288,0-0.526-0.159-0.526-0.354V164.831
					C150.176,164.637,150.413,164.478,150.701,164.478z"/>
				<path style="fill-rule:evenodd;clip-rule:evenodd;fill:#6E94C8;" d="M206.477,150.281h36.94c1.002,0,1.821,0.819,1.821,1.82
					v0.001c0,1.001-0.819,1.82-1.821,1.82h-36.94c-1.003,0-1.822-0.819-1.822-1.82v-0.001
					C204.656,151.1,205.475,150.281,206.477,150.281z"/>
				<path style="fill-rule:evenodd;clip-rule:evenodd;fill:#6E94C8;" d="M224.947,366.919c3.398,0,6.154,2.754,6.154,6.152
					c0,3.401-2.756,6.154-6.154,6.154c-3.402,0-6.154-2.754-6.154-6.154C218.793,369.672,221.546,366.919,224.947,366.919z"/>
			</g>
			<g>
				<rect x="161.957" y="209.975" style="fill:#DBE2E8;" width="51.846" height="39.095"/>
				<path style="fill:#DBE2E8;" d="M264.128,219.783h-41.823c-1.158,0-2.096-0.938-2.096-2.096l0,0c0-1.158,0.938-2.096,2.096-2.096
					h41.823c1.158,0,2.096,0.939,2.096,2.096l0,0C266.224,218.845,265.286,219.783,264.128,219.783z"/>
				<path style="fill:#DBE2E8;" d="M264.128,229.134h-41.823c-1.158,0-2.096-0.939-2.096-2.096l0,0c0-1.158,0.938-2.096,2.096-2.096
					h41.823c1.158,0,2.096,0.939,2.096,2.096l0,0C266.224,228.195,265.286,229.134,264.128,229.134z"/>
				<path style="fill:#DBE2E8;" d="M238.805,238.484h-16.501c-1.158,0-2.096-0.939-2.096-2.096l0,0c0-1.158,0.938-2.096,2.096-2.096
					h16.501c1.158,0,2.096,0.939,2.096,2.096l0,0C240.901,237.545,239.963,238.484,238.805,238.484z"/>
				<path style="fill:#DBE2E8;" d="M264.128,273.341h-41.823c-1.158,0-2.096-0.939-2.096-2.096l0,0c0-1.158,0.938-2.096,2.096-2.096
					h41.823c1.158,0,2.096,0.939,2.096,2.096l0,0C266.224,272.402,265.286,273.341,264.128,273.341z"/>
				<path style="fill:#DBE2E8;" d="M264.128,282.691h-41.823c-1.158,0-2.096-0.939-2.096-2.096l0,0c0-1.158,0.938-2.096,2.096-2.096
					h41.823c1.158,0,2.096,0.939,2.096,2.096l0,0C266.224,281.753,265.286,282.691,264.128,282.691z"/>
				<path style="fill:#DBE2E8;" d="M238.805,292.042h-16.501c-1.158,0-2.096-0.939-2.096-2.096l0,0c0-1.158,0.938-2.096,2.096-2.096
					h16.501c1.158,0,2.096,0.939,2.096,2.096l0,0C240.901,291.103,239.963,292.042,238.805,292.042z"/>
				<path style="fill:#DBE2E8;" d="M264.128,324.414h-41.823c-1.158,0-2.096-0.939-2.096-2.096l0,0c0-1.158,0.938-2.096,2.096-2.096
					h41.823c1.158,0,2.096,0.939,2.096,2.096l0,0C266.224,323.476,265.286,324.414,264.128,324.414z"/>
				<path style="fill:#DBE2E8;" d="M264.128,333.764h-41.823c-1.158,0-2.096-0.939-2.096-2.096l0,0c0-1.158,0.938-2.096,2.096-2.096
					h41.823c1.158,0,2.096,0.939,2.096,2.096l0,0C266.224,332.826,265.286,333.764,264.128,333.764z"/>
				<path style="fill:#DBE2E8;" d="M238.805,343.115h-16.501c-1.158,0-2.096-0.939-2.096-2.096l0,0c0-1.158,0.938-2.096,2.096-2.096
					h16.501c1.158,0,2.096,0.939,2.096,2.096l0,0C240.901,342.176,239.963,343.115,238.805,343.115z"/>
				<rect x="161.957" y="261.048" style="fill:#DBE2E8;" width="51.846" height="39.095"/>
				<rect x="161.957" y="312.121" style="fill:#DBE2E8;" width="51.846" height="39.095"/>
				<g>
					
						<ellipse transform="matrix(0.7071 -0.7071 0.7071 0.7071 -106.993 199.9631)" style="fill:#FF4D43;" cx="187.88" cy="229.134" rx="12.637" ry="12.637"/>
					<polygon style="fill:#FFFFFF;" points="184.531,222.428 184.531,235.839 194.65,229.134 					"/>
				</g>
				<g>
					
						<ellipse transform="matrix(0.7071 -0.7071 0.7071 0.7071 -143.3819 215.0359)" style="fill:#FF4D43;" cx="187.88" cy="280.595" rx="12.637" ry="12.637"/>
					<polygon style="fill:#FFFFFF;" points="184.531,273.889 184.531,287.301 194.65,280.595 					"/>
				</g>
				<g>
					<circle style="fill:#FF4D43;" cx="187.88" cy="332.687" r="12.637"/>
					<polygon style="fill:#FFFFFF;" points="184.531,325.981 184.531,339.393 194.65,332.687 					"/>
				</g>
				<g>
					<path style="fill:#DBE2E8;" d="M277.009,220.78h-1.034c-0.192,0-0.349,0.157-0.349,0.348v2.867
						c0,0.192,0.157,0.349,0.349,0.349h1.034c0.192,0,0.349-0.157,0.349-0.349v-2.867
						C277.358,220.937,277.201,220.78,277.009,220.78z"/>
					<path style="fill:#DBE2E8;" d="M281.681,221.118h-0.062c0.303,0,0.551-0.248,0.551-0.551c0-0.303-0.248-0.551-0.551-0.551
						h-1.767c0.218-0.343,0.514-0.891,0.514-1.338c0-0.708-0.388-1.102-0.641-1.147s-0.438,0.09-0.512,0.303
						c-0.073,0.214,0.056,0.618,0.006,0.763c-0.077,0.223-0.467,0.521-0.995,1.199c-0.472,0.606-0.405,1.321-0.405,1.321v0.978
						v0.978v0.455c0,0.189,0.154,0.343,0.343,0.343h3.283c0.22,0,0.399-0.179,0.399-0.399c0-0.219-0.18-0.399-0.399-0.399h0.056
						c0.269,0,0.489-0.22,0.489-0.489c0-0.269-0.22-0.489-0.489-0.489h0.18c0.269,0,0.489-0.22,0.489-0.489
						C282.17,221.338,281.95,221.118,281.681,221.118z"/>
				</g>
				<g>
					<path style="fill:#DBE2E8;" d="M290.962,223.074h1.034c0.192,0,0.348-0.157,0.348-0.348v-2.867
						c0-0.192-0.157-0.349-0.348-0.349h-1.034c-0.192,0-0.348,0.157-0.348,0.349v2.867
						C290.613,222.917,290.77,223.074,290.962,223.074z"/>
					<path style="fill:#DBE2E8;" d="M286.29,222.737h0.062c-0.303,0-0.551,0.248-0.551,0.551c0,0.303,0.248,0.551,0.551,0.551h1.767
						c-0.218,0.343-0.514,0.891-0.514,1.338c0,0.708,0.388,1.102,0.641,1.147c0.253,0.045,0.439-0.09,0.512-0.304
						c0.073-0.214-0.056-0.619-0.006-0.763c0.077-0.223,0.467-0.521,0.995-1.199c0.472-0.606,0.405-1.321,0.405-1.321v-0.978v-0.978
						v-0.455c0-0.189-0.154-0.343-0.343-0.343h-3.283c-0.219,0-0.399,0.18-0.399,0.399c0,0.219,0.18,0.399,0.399,0.399h-0.056
						c-0.269,0-0.489,0.22-0.489,0.489c0,0.269,0.22,0.489,0.489,0.489h-0.18c-0.269,0-0.489,0.22-0.489,0.489
						C285.801,222.517,286.021,222.737,286.29,222.737z"/>
				</g>
				<g>
					<path style="fill:#DBE2E8;" d="M277.009,273.78h-1.034c-0.192,0-0.349,0.157-0.349,0.348v2.867
						c0,0.192,0.157,0.349,0.349,0.349h1.034c0.192,0,0.349-0.157,0.349-0.349v-2.867
						C277.358,273.937,277.201,273.78,277.009,273.78z"/>
					<path style="fill:#DBE2E8;" d="M281.681,274.118h-0.062c0.303,0,0.551-0.248,0.551-0.551c0-0.303-0.248-0.551-0.551-0.551
						h-1.767c0.218-0.343,0.514-0.891,0.514-1.338c0-0.708-0.388-1.102-0.641-1.147c-0.253-0.045-0.438,0.09-0.512,0.303
						c-0.073,0.214,0.056,0.618,0.006,0.763c-0.077,0.223-0.467,0.521-0.995,1.199c-0.472,0.606-0.405,1.321-0.405,1.321v0.978
						v0.978v0.455c0,0.189,0.154,0.343,0.343,0.343h3.283c0.22,0,0.399-0.18,0.399-0.399c0-0.219-0.18-0.399-0.399-0.399h0.056
						c0.269,0,0.489-0.22,0.489-0.489c0-0.269-0.22-0.489-0.489-0.489h0.18c0.269,0,0.489-0.22,0.489-0.489
						C282.17,274.338,281.95,274.118,281.681,274.118z"/>
				</g>
				<g>
					<path style="fill:#DBE2E8;" d="M290.962,276.074h1.034c0.192,0,0.348-0.157,0.348-0.349v-2.867
						c0-0.192-0.157-0.349-0.348-0.349h-1.034c-0.192,0-0.348,0.157-0.348,0.349v2.867
						C290.613,275.917,290.77,276.074,290.962,276.074z"/>
					<path style="fill:#DBE2E8;" d="M286.29,275.737h0.062c-0.303,0-0.551,0.248-0.551,0.551c0,0.303,0.248,0.551,0.551,0.551h1.767
						c-0.218,0.343-0.514,0.891-0.514,1.338c0,0.708,0.388,1.102,0.641,1.147c0.253,0.045,0.439-0.09,0.512-0.304
						c0.073-0.214-0.056-0.618-0.006-0.763c0.077-0.223,0.467-0.521,0.995-1.199c0.472-0.606,0.405-1.321,0.405-1.321v-0.978v-0.978
						v-0.455c0-0.189-0.154-0.343-0.343-0.343h-3.283c-0.219,0-0.399,0.18-0.399,0.399c0,0.219,0.18,0.399,0.399,0.399h-0.056
						c-0.269,0-0.489,0.22-0.489,0.489c0,0.269,0.22,0.489,0.489,0.489h-0.18c-0.269,0-0.489,0.22-0.489,0.489
						C285.801,275.517,286.021,275.737,286.29,275.737z"/>
				</g>
				<g>
					<path style="fill:#DBE2E8;" d="M277.009,324.835h-1.034c-0.192,0-0.349,0.157-0.349,0.348v2.867
						c0,0.192,0.157,0.349,0.349,0.349h1.034c0.192,0,0.349-0.157,0.349-0.349v-2.867
						C277.358,324.991,277.201,324.835,277.009,324.835z"/>
					<path style="fill:#DBE2E8;" d="M281.681,325.172h-0.062c0.303,0,0.551-0.248,0.551-0.551c0-0.303-0.248-0.551-0.551-0.551
						h-1.767c0.218-0.343,0.514-0.891,0.514-1.338c0-0.708-0.388-1.102-0.641-1.147c-0.253-0.045-0.438,0.09-0.512,0.303
						c-0.073,0.214,0.056,0.618,0.006,0.763c-0.077,0.223-0.467,0.521-0.995,1.199c-0.472,0.606-0.405,1.321-0.405,1.321v0.978
						v0.978v0.455c0,0.189,0.154,0.343,0.343,0.343h3.283c0.22,0,0.399-0.18,0.399-0.399c0-0.219-0.18-0.399-0.399-0.399h0.056
						c0.269,0,0.489-0.22,0.489-0.489c0-0.269-0.22-0.489-0.489-0.489h0.18c0.269,0,0.489-0.22,0.489-0.489
						C282.17,325.392,281.95,325.172,281.681,325.172z"/>
				</g>
				<g>
					<path style="fill:#DBE2E8;" d="M290.962,327.128h1.034c0.192,0,0.348-0.157,0.348-0.349v-2.867
						c0-0.192-0.157-0.349-0.348-0.349h-1.034c-0.192,0-0.348,0.157-0.348,0.349v2.867
						C290.613,326.971,290.77,327.128,290.962,327.128z"/>
					<path style="fill:#DBE2E8;" d="M286.29,326.791h0.062c-0.303,0-0.551,0.248-0.551,0.551c0,0.303,0.248,0.551,0.551,0.551h1.767
						c-0.218,0.343-0.514,0.891-0.514,1.338c0,0.708,0.388,1.102,0.641,1.147c0.253,0.045,0.439-0.09,0.512-0.304
						c0.073-0.214-0.056-0.618-0.006-0.763c0.077-0.223,0.467-0.521,0.995-1.199c0.472-0.606,0.405-1.321,0.405-1.321v-0.978v-0.978
						v-0.455c0-0.189-0.154-0.343-0.343-0.343h-3.283c-0.219,0-0.399,0.179-0.399,0.399c0,0.219,0.18,0.399,0.399,0.399h-0.056
						c-0.269,0-0.489,0.22-0.489,0.489c0,0.269,0.22,0.489,0.489,0.489h-0.18c-0.269,0-0.489,0.22-0.489,0.489
						C285.801,326.571,286.021,326.791,286.29,326.791z"/>
				</g>
				<rect x="150.125" y="164.478" style="fill:#FF4D43;" width="149.643" height="15.566"/>
				<rect x="150.125" y="180.043" style="fill:#DBE2E8;" width="149.643" height="20.498"/>
				<g>
					<path style="fill:#FFFFFF;" d="M168.118,169.106c0,0.436-0.353,0.789-0.789,0.789h-8.991c-0.436,0-0.789-0.353-0.789-0.789l0,0
						c0-0.436,0.353-0.789,0.789-0.789h8.991C167.765,168.316,168.118,168.67,168.118,169.106L168.118,169.106z"/>
					<path style="fill:#FFFFFF;" d="M168.118,172.26c0,0.436-0.353,0.789-0.789,0.789h-8.991c-0.436,0-0.789-0.353-0.789-0.789l0,0
						c0-0.436,0.353-0.789,0.789-0.789h8.991C167.765,171.472,168.118,171.825,168.118,172.26L168.118,172.26z"/>
					<path style="fill:#FFFFFF;" d="M168.118,175.415c0,0.436-0.353,0.789-0.789,0.789h-8.991c-0.436,0-0.789-0.353-0.789-0.789l0,0
						c0-0.436,0.353-0.789,0.789-0.789h8.991C167.765,174.627,168.118,174.98,168.118,175.415L168.118,175.415z"/>
				</g>
				<path style="fill:#FFFFFF;" d="M290.923,171.099l-0.261-0.62c0,0,0.608-1.37,0.553-1.423l-0.804-0.785
					c-0.056-0.054-1.427,0.571-1.427,0.571l-0.632-0.255c0,0-0.559-1.389-0.635-1.389h-1.135c-0.079,0-0.596,1.392-0.596,1.392
					l-0.631,0.256c0,0-1.4-0.595-1.454-0.542l-0.803,0.786c-0.056,0.054,0.583,1.397,0.583,1.397l-0.261,0.619
					c0,0-1.419,0.547-1.419,0.62v1.112c0,0.077,1.422,0.584,1.422,0.584l0.261,0.619c0,0-0.607,1.369-0.554,1.422l0.804,0.787
					c0.054,0.053,1.426-0.572,1.426-0.572l0.633,0.256c0,0,0.559,1.388,0.636,1.388h1.135c0.078,0,0.596-1.392,0.596-1.392
					l0.633-0.256c0,0,1.397,0.595,1.451,0.543l0.804-0.786c0.056-0.055-0.585-1.397-0.585-1.397l0.26-0.619
					c0,0,1.419-0.548,1.419-0.622v-1.112C292.345,171.605,290.923,171.099,290.923,171.099z M288.831,172.26
					c0,0.895-0.744,1.623-1.658,1.623c-0.913,0-1.658-0.729-1.658-1.623c0-0.894,0.745-1.622,1.658-1.622
					C288.088,170.639,288.831,171.366,288.831,172.26z"/>
			</g>
			<polygon style="fill-rule:evenodd;clip-rule:evenodd;fill:#FFFFFF;" points="100.199,426.267 189.281,445.72 177.44,499.938 
				84.112,499.938 			"/>
			<path style="fill-rule:evenodd;clip-rule:evenodd;fill:#F3D5B6;" d="M115.298,410.036l11.272,6.345l2.757-17.398l18.761-88.387
				c3.903-18.383-7.541-24.542-18.872-28.001l-19.96,94.037C107.396,385.392,107.957,405.905,115.298,410.036z"/>
			<g>
				<g>
					<path style="fill-rule:evenodd;clip-rule:evenodd;fill:#F3D5B6;" d="M296.956,425.694l31.164,74.244h65.988
						c2.911-2.591,5.761-5.248,8.543-7.97l-32.161-80.256L296.956,425.694z"/>
					<polygon style="fill-rule:evenodd;clip-rule:evenodd;fill:#FFFFFF;" points="393.673,442.988 415.888,499.938 321.134,499.938 
						311.488,475.72 					"/>
				</g>
				<g>
					<path style="fill-rule:evenodd;clip-rule:evenodd;fill:#F3D5B6;" d="M232.055,367.533l35.915,50.991
						c4.622,6.563,28.672,26.868,35.586,22.788c6.909-4.077-2.844-26.531-7.637-32.982l-27.529-34.518
						C252.607,354.022,239.03,362.298,232.055,367.533z"/>
					<path style="fill-rule:evenodd;clip-rule:evenodd;fill:#F3D5B6;" d="M243.156,266.212l28.95,66.107
						c2.311-11.972,20.562-13.804,27.166-2.51c0.683-12.594,17.717-15.732,25.701-6.659c2.54-11.504,20.851-12.616,26.262-0.38
						l24.778,56.036c6.956,15.733,7.393,39.738,4.231,50.733c-9.375,32.592-52.455,33.625-67.621,23.609
						c-11.824-7.809-21.124-12.066-24.965-20.437l-70.997-155.2C207.664,257.9,236.197,249.894,243.156,266.212z"/>
					<path style="fill-rule:evenodd;clip-rule:evenodd;fill:#D2B79A;" d="M334.48,342.404c0,0-4.694-11.21-8.908-21.148
						c-0.248,0.596-0.452,1.227-0.6,1.895c-0.702-0.796-1.473-1.498-2.296-2.107C327.933,330.725,334.48,342.404,334.48,342.404
						L334.48,342.404z M272.18,331.979c0.237-1.057,0.596-2.035,1.065-2.926c4.685,11.155,12.259,30.402,12.259,30.402
						s-9.662-18.945-13.398-27.136C272.165,332.446,272.184,332.301,272.18,331.979L272.18,331.979z M295.758,325.727
						c1.358,1.093,2.559,2.451,3.514,4.083c0.044-0.838,0.165-1.632,0.348-2.385c4.758,10.958,10.599,24.558,10.599,24.558
						S301.132,335.873,295.758,325.727z"/>
				</g>
			</g>
			<path style="fill-rule:evenodd;clip-rule:evenodd;fill:#FAF1E7;" d="M133.183,283.941c-1.309-0.497-2.638-0.94-3.967-1.346
				l-4.461,21.014C132.294,303.476,132.927,291.654,133.183,283.941z"/>
			<path style="fill-rule:evenodd;clip-rule:evenodd;fill:#FAF1E7;" d="M239.55,266.892l2.468,5.677
				c-4.492,8.057-11.353,10.726-20.194,8.896l-2.461-5.381C212.699,261.426,234.43,254.686,239.55,266.892z"/>
			<path style="fill-rule:evenodd;clip-rule:evenodd;fill:#F3D5B6;" d="M138.708,354.79c7.088,12.48,17.158,35.27,10.798,55.41
				C143.147,430.341,125.127,385.29,138.708,354.79z"/>
			<path style="fill-rule:evenodd;clip-rule:evenodd;fill:#FAF1E7;" d="M235.739,365.54c-1.252,0.621-2.483,1.296-3.684,1.993
				l12.371,17.563C249.454,379.479,241.22,370.974,235.739,365.54z"/>
			<polygon style="fill-rule:evenodd;clip-rule:evenodd;fill:#D2B79A;" points="255.837,363.147 273.362,401.457 250.859,362.338 
							"/>
		</g>
		<path style="fill:#FFFFFF;" d="M263.12,190.292c0,2.856-2.315,5.171-5.172,5.171h-66.005c-2.856,0-5.171-2.316-5.171-5.171l0,0
			c0-2.856,2.315-5.172,5.171-5.172h66.005C260.805,185.121,263.12,187.436,263.12,190.292L263.12,190.292z"/>
		<path style="fill:#DBE2E8;" d="M256.431,187.922c-0.891-0.892-2.342-0.892-3.234,0c-0.892,0.892-0.892,2.343,0,3.234
			c0.717,0.717,1.794,0.856,2.652,0.421l1.753,1.754l1.004-1.003l-1.753-1.754C257.287,189.716,257.147,188.639,256.431,187.922z
			 M255.762,190.487c-0.523,0.523-1.374,0.523-1.896,0c-0.523-0.522-0.523-1.373,0-1.896c0.522-0.522,1.373-0.522,1.896,0
			C256.284,189.114,256.284,189.965,255.762,190.487z"/>
		<g>
			<rect x="304.707" y="229.822" style="fill:#FFFFFF;" width="89.695" height="69.187"/>
			<rect x="316.457" y="237.211" style="fill:#2D4F76;" width="66.194" height="54.41"/>
			<g>
				<polygon style="fill:#FFFFFF;" points="344.138,256.304 358.189,264.416 344.138,272.528 				"/>
				<g>
					<path style="fill:#FFFFFF;" d="M349.554,278.215c-7.608,0-13.799-6.191-13.799-13.799c0-7.609,6.191-13.799,13.799-13.799
						c7.609,0,13.799,6.191,13.799,13.799C363.353,272.025,357.163,278.215,349.554,278.215z M349.554,252.549
						c-6.544,0-11.867,5.323-11.867,11.867c0,6.544,5.324,11.867,11.867,11.867c6.544,0,11.867-5.324,11.867-11.867
						C361.421,257.872,356.097,252.549,349.554,252.549z"/>
				</g>
			</g>
			<path style="fill:#F5F5F5;" d="M377.19,287.916c0,0.416-0.337,0.752-0.752,0.752H322.67c-0.415,0-0.752-0.337-0.752-0.752l0,0
				c0-0.416,0.337-0.752,0.752-0.752h53.768C376.853,287.164,377.19,287.5,377.19,287.916L377.19,287.916z"/>
			<path style="fill:#FF4D43;" d="M350.19,287.916c0,0.416-0.337,0.752-0.752,0.752H322.67c-0.415,0-0.752-0.337-0.752-0.752l0,0
				c0-0.416,0.337-0.752,0.752-0.752h26.768C349.853,287.164,350.19,287.5,350.19,287.916L350.19,287.916z"/>
			<circle style="fill:#FF4D43;" cx="349.554" cy="287.916" r="1.817"/>
		</g>
		<g>
			<path style="fill:#2D4F76;" d="M394.402,239.984L394.402,239.984c-5.458,0-9.883-4.425-9.883-9.883v-0.558
				c0-5.458,4.425-9.883,9.883-9.883l0,0c5.458,0,9.882,4.425,9.882,9.883v0.558C404.284,235.559,399.86,239.984,394.402,239.984z"
				/>
			<path style="fill:#FFFFFF;" d="M395.268,229.822l3.902-3.902c0.239-0.239,0.239-0.627,0-0.866c-0.24-0.239-0.627-0.239-0.866,0
				l-3.902,3.902l-3.902-3.902c-0.239-0.239-0.626-0.239-0.866,0c-0.239,0.239-0.239,0.627,0,0.866l3.902,3.902l-3.902,3.902
				c-0.239,0.239-0.239,0.627,0,0.866c0.12,0.12,0.277,0.18,0.433,0.18c0.157,0,0.313-0.06,0.433-0.18l3.902-3.901l3.902,3.901
				c0.119,0.12,0.276,0.18,0.433,0.18c0.156,0,0.313-0.06,0.433-0.18c0.239-0.239,0.239-0.627,0-0.866L395.268,229.822z"/>
		</g>
	</g>
</g>
<g id="DESIGNED_BY_FREEPIK">
	<g id="XMLID_76_">
		<g id="XMLID_929_">
			<path id="XMLID_958_" style="fill:#454258;" d="M181.087,472.134c-0.246,0-0.435,0.085-0.567,0.255
				c-0.133,0.17-0.199,0.421-0.199,0.753v2.392c-0.305-0.331-0.617-0.579-0.937-0.739c-0.321-0.159-0.715-0.24-1.182-0.24
				c-0.807,0-1.458,0.283-1.953,0.848c-0.494,0.566-0.742,1.356-0.742,2.369c0,0.478,0.063,0.923,0.187,1.335
				c0.124,0.412,0.307,0.77,0.549,1.074c0.241,0.305,0.527,0.539,0.857,0.703c0.33,0.164,0.689,0.246,1.078,0.246
				c0.293,0,0.563-0.04,0.809-0.122c0.248-0.08,0.477-0.199,0.689-0.356c0.212-0.156,0.427-0.359,0.644-0.608v0.16
				c0,0.297,0.072,0.525,0.217,0.685c0.145,0.161,0.328,0.24,0.549,0.24c0.226,0,0.409-0.077,0.552-0.231
				c0.143-0.154,0.214-0.386,0.214-0.694v-7.146c0-0.305-0.066-0.534-0.199-0.691C181.521,472.212,181.332,472.134,181.087,472.134z
				 M180.021,478.974c-0.14,0.306-0.328,0.533-0.563,0.682c-0.236,0.149-0.496,0.223-0.781,0.223c-0.281,0-0.539-0.079-0.777-0.236
				c-0.237-0.155-0.424-0.387-0.561-0.696c-0.136-0.309-0.204-0.682-0.204-1.122c0-0.415,0.063-0.78,0.193-1.095
				c0.128-0.315,0.309-0.556,0.543-0.724c0.233-0.168,0.499-0.253,0.795-0.253c0.285,0,0.547,0.082,0.786,0.246
				c0.239,0.165,0.429,0.402,0.569,0.712c0.141,0.311,0.21,0.682,0.21,1.114C180.232,478.284,180.162,478.667,180.021,478.974z"/>
			<path id="XMLID_954_" style="fill:#454258;" d="M188.452,478.054c0.233-0.122,0.35-0.385,0.35-0.793
				c0-0.438-0.114-0.87-0.339-1.294c-0.225-0.423-0.564-0.769-1.018-1.035c-0.453-0.268-0.996-0.4-1.628-0.4
				c-0.487,0-0.93,0.078-1.33,0.234c-0.4,0.157-0.737,0.381-1.009,0.674c-0.273,0.293-0.48,0.644-0.623,1.054
				c-0.143,0.409-0.214,0.853-0.214,1.332c0,1.017,0.289,1.822,0.867,2.415c0.577,0.592,1.387,0.89,2.427,0.89
				c0.455,0,0.858-0.059,1.207-0.178c0.352-0.12,0.641-0.268,0.873-0.448c0.231-0.18,0.404-0.368,0.519-0.564
				c0.115-0.197,0.172-0.367,0.172-0.514c0-0.166-0.052-0.294-0.155-0.386c-0.102-0.09-0.237-0.137-0.403-0.137
				c-0.154,0-0.273,0.035-0.356,0.107c-0.203,0.19-0.366,0.34-0.493,0.452c-0.126,0.111-0.265,0.215-0.415,0.312
				c-0.15,0.098-0.305,0.167-0.466,0.214c-0.16,0.045-0.337,0.067-0.531,0.067c-0.289,0-0.553-0.07-0.792-0.213
				c-0.239-0.142-0.432-0.354-0.576-0.635c-0.145-0.281-0.219-0.605-0.222-0.973h3.168
				C187.89,478.235,188.219,478.174,188.452,478.054z M184.297,477.315c0.056-0.546,0.212-0.959,0.472-1.238
				c0.259-0.28,0.59-0.418,0.994-0.418c0.423,0,0.764,0.137,1.024,0.412c0.259,0.275,0.409,0.69,0.448,1.244H184.297z"/>
			<path id="XMLID_952_" style="fill:#454258;" d="M193.879,477.617c-0.319-0.17-0.729-0.316-1.231-0.439
				c-0.425-0.103-0.756-0.19-0.997-0.261c-0.242-0.07-0.434-0.16-0.577-0.27c-0.142-0.109-0.213-0.248-0.213-0.419
				c0-0.186,0.096-0.341,0.29-0.465c0.194-0.126,0.437-0.187,0.73-0.187c0.286,0,0.511,0.047,0.677,0.142
				c0.166,0.095,0.31,0.222,0.433,0.38c0.151,0.19,0.284,0.332,0.401,0.427c0.116,0.095,0.258,0.143,0.423,0.143
				c0.231,0,0.408-0.06,0.532-0.178c0.124-0.119,0.186-0.271,0.186-0.457c0-0.171-0.058-0.345-0.175-0.523
				c-0.116-0.178-0.286-0.34-0.51-0.486c-0.223-0.146-0.502-0.264-0.837-0.35c-0.333-0.088-0.71-0.131-1.13-0.131
				c-0.535,0-0.99,0.085-1.367,0.259c-0.378,0.172-0.665,0.403-0.859,0.691c-0.194,0.289-0.291,0.596-0.291,0.92
				c0,0.364,0.105,0.671,0.315,0.92c0.21,0.249,0.489,0.45,0.84,0.602c0.35,0.152,0.804,0.298,1.362,0.436
				c0.494,0.12,0.849,0.244,1.066,0.375c0.216,0.131,0.323,0.338,0.323,0.622c0,0.187-0.104,0.352-0.311,0.497
				c-0.208,0.144-0.474,0.216-0.798,0.216c-0.4,0-0.715-0.071-0.947-0.213c-0.231-0.143-0.431-0.358-0.597-0.647
				c-0.082-0.15-0.17-0.267-0.261-0.35c-0.091-0.082-0.221-0.124-0.391-0.124c-0.194,0-0.355,0.064-0.481,0.19
				c-0.128,0.126-0.19,0.278-0.19,0.456c0,0.27,0.099,0.537,0.297,0.805c0.198,0.266,0.505,0.489,0.92,0.667
				c0.415,0.178,0.914,0.267,1.495,0.267c0.61,0,1.127-0.082,1.552-0.246c0.425-0.164,0.747-0.406,0.964-0.724
				c0.218-0.319,0.327-0.702,0.327-1.149c0-0.297-0.082-0.56-0.246-0.791C194.438,477.988,194.196,477.787,193.879,477.617z"/>
			<path id="XMLID_950_" style="fill:#454258;" d="M196.486,474.543c-0.237,0-0.43,0.081-0.578,0.243
				c-0.149,0.162-0.222,0.404-0.222,0.724v4.635c0,0.317,0.073,0.56,0.222,0.73c0.148,0.17,0.341,0.255,0.578,0.255
				c0.238,0,0.433-0.083,0.588-0.249c0.154-0.166,0.231-0.412,0.231-0.737v-4.682c0-0.289-0.077-0.514-0.231-0.677
				C196.919,474.624,196.724,474.543,196.486,474.543z"/>
			<path id="XMLID_949_" style="fill:#454258;" d="M196.504,472.204c-0.217,0-0.409,0.073-0.573,0.223
				c-0.164,0.149-0.246,0.337-0.246,0.567c0,0.254,0.08,0.45,0.24,0.588c0.16,0.139,0.353,0.208,0.579,0.208
				c0.217,0,0.405-0.071,0.563-0.211c0.158-0.14,0.238-0.335,0.238-0.585c0-0.257-0.081-0.453-0.243-0.588
				C196.9,472.272,196.714,472.204,196.504,472.204z"/>
			<path id="XMLID_945_" style="fill:#454258;" d="M203.626,474.543c-0.217,0-0.395,0.078-0.535,0.231
				c-0.139,0.155-0.208,0.372-0.208,0.653v0.22c-0.289-0.376-0.602-0.652-0.937-0.829c-0.337-0.175-0.735-0.264-1.194-0.264
				c-0.384,0-0.736,0.068-1.056,0.204c-0.32,0.137-0.604,0.34-0.849,0.609c-0.245,0.268-0.433,0.599-0.566,0.992
				c-0.133,0.391-0.199,0.831-0.199,1.318c0,0.653,0.109,1.228,0.327,1.727c0.217,0.499,0.529,0.886,0.934,1.163
				c0.407,0.277,0.88,0.416,1.422,0.416c0.45,0,0.84-0.091,1.165-0.273c0.327-0.182,0.615-0.447,0.864-0.796
				c-0.008,0.531-0.02,0.915-0.035,1.155c-0.016,0.24-0.07,0.464-0.163,0.673c-0.093,0.21-0.255,0.374-0.486,0.49
				c-0.231,0.117-0.557,0.175-0.977,0.175c-0.205,0-0.388-0.02-0.546-0.056c-0.159-0.038-0.294-0.095-0.406-0.172
				c-0.112-0.078-0.216-0.17-0.309-0.279c-0.093-0.109-0.183-0.217-0.27-0.324c-0.178-0.209-0.386-0.314-0.624-0.314
				c-0.189,0-0.352,0.062-0.486,0.187c-0.135,0.124-0.202,0.285-0.202,0.483c0,0.262,0.119,0.516,0.356,0.763
				c0.238,0.247,0.576,0.449,1.014,0.605c0.439,0.156,0.938,0.234,1.496,0.234c0.609,0,1.119-0.061,1.528-0.184
				c0.409-0.122,0.741-0.311,0.994-0.563c0.253-0.254,0.437-0.574,0.552-0.961c0.115-0.389,0.173-0.851,0.173-1.389v-4.706
				c0-0.384-0.051-0.678-0.155-0.882C204.146,474.645,203.938,474.543,203.626,474.543z M202.599,478.908
				c-0.151,0.291-0.345,0.508-0.586,0.653c-0.239,0.144-0.493,0.217-0.762,0.217c-0.455,0-0.826-0.168-1.113-0.505
				c-0.287-0.336-0.43-0.834-0.43-1.49c0-0.649,0.139-1.15,0.418-1.502s0.649-0.528,1.113-0.528c0.475,0,0.857,0.184,1.148,0.553
				c0.291,0.367,0.436,0.882,0.436,1.543C202.825,478.265,202.749,478.617,202.599,478.908z"/>
			<path id="XMLID_944_" style="fill:#454258;" d="M210.978,475.611c-0.165-0.339-0.417-0.602-0.753-0.788
				c-0.337-0.186-0.718-0.28-1.146-0.28c-0.439,0-0.827,0.088-1.166,0.264c-0.339,0.176-0.65,0.452-0.935,0.828v-0.196
				c0-0.193-0.034-0.358-0.104-0.493c-0.07-0.134-0.162-0.234-0.276-0.302c-0.115-0.068-0.244-0.101-0.387-0.101
				c-0.233,0-0.417,0.076-0.552,0.228c-0.134,0.153-0.201,0.383-0.201,0.692v4.682c0,0.317,0.076,0.56,0.226,0.73
				c0.15,0.17,0.342,0.255,0.576,0.255c0.241,0,0.438-0.082,0.59-0.246c0.152-0.164,0.228-0.411,0.228-0.74v-2.03
				c0-0.661,0.04-1.111,0.119-1.353c0.11-0.3,0.284-0.537,0.522-0.71c0.237-0.173,0.5-0.258,0.788-0.258
				c0.444,0,0.74,0.142,0.888,0.425c0.148,0.283,0.223,0.691,0.223,1.225v2.7c0,0.317,0.074,0.56,0.226,0.73
				c0.15,0.17,0.345,0.255,0.587,0.255c0.238,0,0.431-0.083,0.579-0.249c0.149-0.166,0.223-0.412,0.223-0.737v-3.015
				c0-0.356-0.016-0.648-0.048-0.878C211.155,476.023,211.085,475.809,210.978,475.611z"/>
			<path id="XMLID_939_" style="fill:#454258;" d="M217.821,478.054c0.234-0.122,0.35-0.385,0.35-0.793
				c0-0.438-0.113-0.87-0.338-1.294c-0.226-0.423-0.565-0.769-1.019-1.035c-0.453-0.268-0.995-0.4-1.628-0.4
				c-0.487,0-0.93,0.078-1.33,0.234c-0.4,0.157-0.736,0.381-1.009,0.674c-0.273,0.293-0.481,0.644-0.624,1.054
				c-0.142,0.409-0.214,0.853-0.214,1.332c0,1.017,0.289,1.822,0.867,2.415c0.578,0.592,1.387,0.89,2.427,0.89
				c0.455,0,0.858-0.059,1.208-0.178c0.35-0.12,0.64-0.268,0.871-0.448c0.232-0.18,0.405-0.368,0.52-0.564
				c0.115-0.197,0.172-0.367,0.172-0.514c0-0.166-0.051-0.294-0.154-0.386c-0.103-0.09-0.238-0.137-0.404-0.137
				c-0.154,0-0.273,0.035-0.356,0.107c-0.201,0.19-0.366,0.34-0.492,0.452c-0.128,0.111-0.266,0.215-0.416,0.312
				c-0.151,0.098-0.306,0.167-0.466,0.214c-0.161,0.045-0.338,0.067-0.532,0.067c-0.289,0-0.553-0.07-0.792-0.213
				c-0.239-0.142-0.431-0.354-0.575-0.635c-0.145-0.281-0.218-0.605-0.223-0.973h3.169
				C217.26,478.235,217.588,478.174,217.821,478.054z M213.667,477.315c0.055-0.546,0.212-0.959,0.471-1.238
				c0.259-0.28,0.591-0.418,0.995-0.418c0.423,0,0.765,0.137,1.024,0.412c0.259,0.275,0.409,0.69,0.448,1.244H213.667z"/>
			<path id="XMLID_936_" style="fill:#454258;" d="M224.207,472.134c-0.245,0-0.434,0.085-0.567,0.255
				c-0.132,0.17-0.2,0.421-0.2,0.753v2.392c-0.304-0.331-0.616-0.579-0.937-0.739c-0.32-0.159-0.714-0.24-1.181-0.24
				c-0.807,0-1.458,0.283-1.953,0.848c-0.495,0.566-0.741,1.356-0.741,2.369c0,0.478,0.062,0.923,0.187,1.335
				c0.124,0.412,0.307,0.77,0.549,1.074c0.241,0.305,0.527,0.539,0.857,0.703c0.33,0.164,0.689,0.246,1.077,0.246
				c0.293,0,0.563-0.04,0.81-0.122c0.247-0.08,0.476-0.199,0.688-0.356c0.211-0.156,0.426-0.359,0.643-0.608v0.16
				c0,0.297,0.073,0.525,0.217,0.685c0.145,0.161,0.328,0.24,0.549,0.24c0.226,0,0.41-0.077,0.552-0.231
				c0.143-0.154,0.214-0.386,0.214-0.694v-7.146c0-0.305-0.066-0.534-0.199-0.691C224.64,472.212,224.452,472.134,224.207,472.134z
				 M223.141,478.974c-0.14,0.306-0.328,0.533-0.564,0.682c-0.235,0.149-0.495,0.223-0.781,0.223c-0.281,0-0.54-0.079-0.776-0.236
				c-0.238-0.155-0.425-0.387-0.561-0.696c-0.137-0.309-0.205-0.682-0.205-1.122c0-0.415,0.064-0.78,0.193-1.095
				c0.129-0.315,0.31-0.556,0.543-0.724c0.233-0.168,0.499-0.253,0.795-0.253c0.285,0,0.547,0.082,0.787,0.246
				c0.239,0.165,0.43,0.402,0.57,0.712c0.14,0.311,0.21,0.682,0.21,1.114C223.352,478.284,223.281,478.667,223.141,478.974z"/>
			<path id="XMLID_933_" style="fill:#454258;" d="M233.586,474.937c-0.406-0.254-0.878-0.382-1.416-0.382
				c-0.467,0-0.859,0.084-1.175,0.252c-0.317,0.168-0.627,0.411-0.932,0.727v-2.475c0-0.297-0.068-0.524-0.202-0.685
				c-0.134-0.16-0.326-0.24-0.576-0.24c-0.237,0-0.423,0.084-0.555,0.252c-0.132,0.168-0.198,0.416-0.198,0.745v7.075
				c0,0.305,0.068,0.535,0.205,0.692c0.136,0.156,0.319,0.234,0.549,0.234c0.226,0,0.412-0.077,0.558-0.234
				c0.146-0.157,0.22-0.388,0.22-0.692v-0.16c0.178,0.205,0.322,0.361,0.43,0.463c0.109,0.103,0.241,0.203,0.395,0.3
				c0.154,0.098,0.341,0.175,0.561,0.234c0.22,0.06,0.454,0.089,0.704,0.089c0.407,0,0.781-0.082,1.118-0.246
				c0.338-0.164,0.626-0.397,0.864-0.698c0.237-0.3,0.418-0.656,0.543-1.065c0.125-0.41,0.187-0.859,0.187-1.35
				c0-0.665-0.112-1.241-0.336-1.725C234.305,475.563,233.991,475.193,233.586,474.937z M232.796,479.348
				c-0.295,0.354-0.646,0.531-1.053,0.531c-0.479,0-0.866-0.174-1.161-0.521c-0.295-0.346-0.442-0.841-0.442-1.487
				c0-0.439,0.069-0.818,0.208-1.136c0.138-0.319,0.328-0.562,0.57-0.73c0.24-0.168,0.516-0.253,0.825-0.253
				c0.3,0,0.564,0.085,0.79,0.253c0.225,0.168,0.399,0.406,0.522,0.715c0.123,0.308,0.184,0.677,0.184,1.104
				C233.238,478.486,233.09,478.993,232.796,479.348z"/>
			<path id="XMLID_931_" style="fill:#454258;" d="M240.529,474.641c-0.112-0.066-0.23-0.098-0.353-0.098
				c-0.171,0-0.303,0.03-0.395,0.09c-0.093,0.058-0.181,0.173-0.264,0.344c-0.083,0.17-0.176,0.406-0.279,0.706l-1.3,3.71
				l-1.371-3.988c-0.091-0.277-0.195-0.489-0.314-0.638c-0.119-0.148-0.295-0.223-0.529-0.223c-0.135,0-0.264,0.035-0.389,0.107
				c-0.124,0.071-0.222,0.166-0.294,0.285c-0.071,0.118-0.107,0.247-0.107,0.385c0,0.13,0.062,0.341,0.184,0.628l1.994,5.022
				l-0.148,0.362c-0.111,0.265-0.209,0.466-0.294,0.601c-0.085,0.138-0.181,0.234-0.288,0.289c-0.107,0.056-0.254,0.084-0.44,0.084
				c-0.074,0-0.163-0.012-0.266-0.035c-0.083-0.024-0.168-0.037-0.256-0.037c-0.221,0-0.388,0.051-0.5,0.152
				c-0.114,0.101-0.17,0.245-0.17,0.43c0,0.273,0.118,0.461,0.356,0.564c0.237,0.103,0.593,0.154,1.068,0.154
				c0.487,0,0.873-0.074,1.161-0.223c0.287-0.148,0.517-0.361,0.691-0.638c0.174-0.277,0.353-0.658,0.535-1.145l2.113-5.532
				c0.051-0.142,0.095-0.283,0.13-0.421c0.037-0.139,0.061-0.246,0.078-0.321c0-0.123-0.032-0.239-0.093-0.35
				C240.729,474.794,240.642,474.706,240.529,474.641z"/>
		</g>
		<g id="XMLID_365_">
			<g id="XMLID_380_">
				<path id="XMLID_928_" style="fill:#454258;" d="M262.93,472.129c-0.533,0-0.954,0.069-1.26,0.204
					c-0.307,0.137-0.527,0.354-0.654,0.652c-0.129,0.301-0.191,0.702-0.191,1.211v0.487h-0.387c-0.543,0-0.815,0.192-0.815,0.582
					c0,0.174,0.066,0.316,0.196,0.424c0.132,0.111,0.316,0.163,0.558,0.163h0.447v4.294c0,0.319,0.074,0.563,0.227,0.73
					c0.154,0.17,0.344,0.254,0.574,0.254c0.243,0,0.438-0.084,0.589-0.254c0.156-0.167,0.231-0.411,0.231-0.73v-4.294h0.395
					c0.29,0,0.517-0.035,0.68-0.107c0.166-0.071,0.245-0.24,0.245-0.502c0-0.374-0.306-0.56-0.926-0.56h-0.395v-0.386
					c0-0.322,0.043-0.568,0.122-0.74c0.087-0.172,0.273-0.259,0.566-0.259c0.107,0,0.241,0.014,0.389,0.034
					c0.156,0.026,0.267,0.038,0.33,0.038c0.134,0,0.252-0.054,0.348-0.16c0.101-0.107,0.15-0.236,0.15-0.384
					C264.35,472.359,263.879,472.129,262.93,472.129z"/>
				<path id="XMLID_926_" style="fill:#454258;" d="M268.089,474.795c-0.32-0.171-0.648-0.255-0.99-0.255
					c-0.342,0-0.611,0.084-0.818,0.255c-0.203,0.171-0.4,0.421-0.592,0.755c-0.014-0.334-0.08-0.584-0.198-0.755
					c-0.119-0.171-0.312-0.255-0.583-0.255c-0.525,0-0.788,0.364-0.788,1.093v4.513c0,0.323,0.078,0.569,0.225,0.733
					c0.15,0.169,0.34,0.25,0.579,0.25c0.237,0,0.432-0.081,0.586-0.247c0.151-0.163,0.234-0.41,0.234-0.737v-1.355
					c0-0.486,0.014-0.899,0.045-1.239c0.034-0.336,0.09-0.63,0.17-0.878c0.084-0.243,0.201-0.425,0.353-0.553
					c0.149-0.122,0.345-0.186,0.582-0.186c0.172,0,0.374,0.037,0.602,0.108c0.226,0.073,0.37,0.112,0.433,0.112
					c0.157,0,0.304-0.064,0.441-0.195c0.135-0.126,0.204-0.292,0.204-0.488C268.571,475.193,268.411,474.966,268.089,474.795z"/>
				<path id="XMLID_922_" style="fill:#454258;" d="M274.176,478.052c0.233-0.122,0.351-0.386,0.351-0.791
					c0-0.441-0.113-0.87-0.339-1.296c-0.222-0.423-0.566-0.77-1.018-1.034c-0.453-0.27-0.997-0.403-1.629-0.403
					c-0.488,0-0.931,0.078-1.33,0.233c-0.402,0.156-0.735,0.38-1.007,0.674c-0.276,0.295-0.484,0.643-0.624,1.055
					c-0.144,0.41-0.217,0.855-0.217,1.333c0,1.017,0.292,1.823,0.87,2.418c0.577,0.593,1.385,0.888,2.429,0.888
					c0.453,0,0.857-0.06,1.207-0.179c0.349-0.117,0.639-0.268,0.874-0.446c0.233-0.182,0.405-0.368,0.522-0.566
					c0.112-0.195,0.167-0.365,0.167-0.512c0-0.167-0.048-0.294-0.152-0.386c-0.105-0.092-0.238-0.139-0.406-0.139
					c-0.152,0-0.271,0.038-0.355,0.109c-0.202,0.189-0.367,0.34-0.494,0.449c-0.128,0.113-0.264,0.217-0.415,0.312
					c-0.15,0.097-0.307,0.17-0.466,0.213c-0.16,0.048-0.336,0.069-0.531,0.069c-0.29,0-0.552-0.07-0.793-0.212
					c-0.24-0.145-0.431-0.356-0.578-0.635c-0.144-0.281-0.216-0.607-0.221-0.974h3.171
					C273.615,478.233,273.943,478.173,274.176,478.052z M270.021,477.312c0.054-0.546,0.213-0.957,0.472-1.236
					c0.259-0.28,0.591-0.417,0.995-0.417c0.426,0,0.764,0.136,1.025,0.413c0.26,0.273,0.407,0.688,0.446,1.241H270.021z"/>
				<path id="XMLID_919_" style="fill:#454258;" d="M280.916,478.052c0.231-0.122,0.351-0.386,0.351-0.791
					c0-0.441-0.116-0.87-0.34-1.296c-0.222-0.423-0.563-0.77-1.013-1.034c-0.46-0.27-1.003-0.403-1.633-0.403
					c-0.486,0-0.932,0.078-1.33,0.233c-0.401,0.156-0.736,0.38-1.009,0.674c-0.273,0.295-0.481,0.643-0.622,1.055
					c-0.145,0.41-0.217,0.855-0.217,1.333c0,1.017,0.29,1.823,0.868,2.418c0.58,0.593,1.387,0.888,2.429,0.888
					c0.453,0,0.86-0.06,1.208-0.179c0.347-0.117,0.641-0.268,0.872-0.446c0.234-0.182,0.408-0.368,0.519-0.566
					c0.117-0.195,0.171-0.365,0.171-0.512c0-0.167-0.047-0.294-0.15-0.386c-0.104-0.092-0.238-0.139-0.406-0.139
					c-0.151,0-0.27,0.038-0.355,0.109c-0.203,0.189-0.368,0.34-0.492,0.449c-0.128,0.113-0.264,0.217-0.415,0.312
					c-0.152,0.097-0.307,0.17-0.469,0.213c-0.157,0.048-0.336,0.069-0.528,0.069c-0.291,0-0.555-0.07-0.795-0.212
					c-0.239-0.145-0.431-0.356-0.575-0.635c-0.144-0.281-0.218-0.607-0.222-0.974h3.17
					C280.354,478.233,280.682,478.173,280.916,478.052z M276.762,477.312c0.053-0.546,0.211-0.957,0.469-1.236
					c0.261-0.28,0.592-0.417,0.995-0.417c0.425,0,0.763,0.136,1.027,0.413c0.257,0.273,0.407,0.688,0.447,1.241H276.762z"/>
				<path id="XMLID_390_" style="fill:#454258;" d="M286.926,474.937c-0.42-0.256-0.882-0.386-1.379-0.386
					c-0.415,0-0.79,0.089-1.114,0.267c-0.331,0.176-0.649,0.452-0.952,0.828v-0.195c0-0.296-0.071-0.519-0.218-0.677
					c-0.143-0.156-0.329-0.234-0.56-0.234c-0.233,0-0.419,0.078-0.553,0.228c-0.134,0.155-0.2,0.382-0.2,0.692v6.995
					c0,0.355,0.051,0.62,0.146,0.807c0.102,0.183,0.301,0.275,0.607,0.275c0.518,0,0.778-0.359,0.778-1.068v-2.433
					c0.287,0.358,0.586,0.634,0.901,0.816c0.314,0.187,0.704,0.279,1.165,0.279c0.385,0,0.741-0.076,1.079-0.227
					c0.334-0.153,0.622-0.372,0.868-0.654c0.245-0.283,0.441-0.632,0.58-1.05c0.14-0.419,0.21-0.878,0.21-1.376
					c0-0.677-0.122-1.261-0.366-1.758C287.675,475.572,287.346,475.196,286.926,474.937z M286.451,478.94
					c-0.137,0.313-0.32,0.546-0.552,0.704c-0.229,0.154-0.48,0.232-0.748,0.232c-0.454,0-0.828-0.179-1.133-0.536
					c-0.306-0.358-0.46-0.862-0.46-1.504c0-0.686,0.154-1.204,0.462-1.558c0.306-0.35,0.684-0.527,1.13-0.527
					c0.281,0,0.541,0.084,0.77,0.248c0.229,0.163,0.411,0.397,0.541,0.705c0.13,0.306,0.197,0.674,0.197,1.101
					C286.658,478.248,286.589,478.626,286.451,478.94z"/>
				<path id="XMLID_389_" style="fill:#454258;" d="M289.9,474.54c-0.238,0-0.428,0.079-0.58,0.245
					c-0.146,0.162-0.222,0.403-0.222,0.721v4.641c0,0.313,0.076,0.555,0.222,0.729c0.152,0.17,0.342,0.254,0.58,0.254
					c0.238,0,0.432-0.082,0.588-0.25c0.154-0.165,0.231-0.41,0.231-0.732v-4.688c0-0.287-0.078-0.512-0.231-0.675
					C290.332,474.619,290.138,474.54,289.9,474.54z"/>
				<path id="XMLID_388_" style="fill:#454258;" d="M289.917,472.199c-0.217,0-0.408,0.076-0.571,0.223
					c-0.166,0.149-0.248,0.339-0.248,0.568c0,0.253,0.081,0.447,0.242,0.586c0.159,0.138,0.35,0.209,0.577,0.209
					c0.22,0,0.408-0.071,0.566-0.209c0.157-0.14,0.236-0.335,0.236-0.585c0-0.257-0.082-0.454-0.244-0.591
					C290.314,472.267,290.13,472.199,289.917,472.199z"/>
				<path id="XMLID_387_" style="fill:#454258;" d="M297.258,479.569l-1.662-2.614l0.86-0.789c0.438-0.395,0.659-0.714,0.659-0.951
					c0-0.192-0.068-0.355-0.2-0.483c-0.139-0.128-0.306-0.193-0.51-0.193c-0.168,0-0.312,0.043-0.431,0.13
					c-0.121,0.086-0.29,0.251-0.517,0.486l-1.822,1.914v-3.933c0-0.329-0.074-0.582-0.221-0.751
					c-0.148-0.172-0.344-0.258-0.593-0.258c-0.255,0-0.457,0.093-0.596,0.283c-0.135,0.189-0.207,0.462-0.207,0.821v6.913
					c0,0.323,0.073,0.569,0.215,0.733c0.141,0.169,0.339,0.25,0.588,0.25c0.213,0,0.406-0.084,0.566-0.254
					c0.165-0.167,0.248-0.406,0.248-0.718v-1.291l0.88-0.83l1.427,2.353c0.181,0.278,0.33,0.471,0.436,0.58
					c0.106,0.109,0.26,0.16,0.458,0.16c0.226,0,0.413-0.073,0.553-0.221c0.142-0.151,0.214-0.352,0.214-0.61
					c0-0.089-0.029-0.19-0.082-0.289C297.47,479.909,297.379,479.765,297.258,479.569z"/>
				<path id="XMLID_386_" style="fill:#454258;" d="M299.45,479.343c-0.25,0-0.458,0.087-0.63,0.261
					c-0.17,0.173-0.256,0.381-0.256,0.622c0,0.287,0.09,0.51,0.268,0.665c0.179,0.159,0.389,0.238,0.633,0.238
					c0.237,0,0.444-0.079,0.624-0.241c0.174-0.157,0.264-0.38,0.264-0.662c0-0.243-0.089-0.454-0.264-0.626
					C299.909,479.43,299.698,479.343,299.45,479.343z"/>
				<path id="XMLID_385_" style="fill:#454258;" d="M306.835,478.417c-0.167,0-0.308,0.054-0.422,0.156
					c-0.113,0.104-0.219,0.245-0.318,0.427c-0.178,0.309-0.381,0.538-0.616,0.689c-0.231,0.15-0.509,0.225-0.835,0.225
					c-0.24,0-0.463-0.045-0.665-0.141c-0.201-0.093-0.372-0.229-0.516-0.409c-0.143-0.18-0.252-0.398-0.325-0.652
					c-0.075-0.256-0.114-0.537-0.114-0.842c0-0.646,0.147-1.161,0.439-1.534c0.294-0.375,0.682-0.561,1.158-0.561
					c0.333,0,0.607,0.075,0.821,0.227c0.219,0.148,0.424,0.375,0.622,0.674c0.109,0.158,0.209,0.269,0.299,0.339
					c0.09,0.068,0.201,0.104,0.338,0.104c0.202,0,0.377-0.068,0.524-0.203c0.143-0.135,0.214-0.3,0.214-0.492
					c0-0.192-0.063-0.397-0.192-0.617c-0.128-0.218-0.314-0.424-0.556-0.62c-0.245-0.192-0.54-0.352-0.89-0.474
					c-0.353-0.123-0.737-0.184-1.157-0.184c-0.674,0-1.26,0.138-1.746,0.419c-0.486,0.279-0.859,0.674-1.113,1.183
					c-0.259,0.511-0.387,1.098-0.387,1.765c0,0.981,0.281,1.764,0.841,2.349c0.562,0.582,1.344,0.876,2.348,0.876
					c0.469,0,0.893-0.065,1.269-0.192c0.377-0.126,0.688-0.295,0.934-0.502c0.248-0.207,0.434-0.425,0.554-0.656
					c0.121-0.229,0.182-0.446,0.182-0.646c0-0.169-0.066-0.331-0.198-0.481C307.198,478.493,307.033,478.417,306.835,478.417z"/>
				<path id="XMLID_382_" style="fill:#454258;" d="M313.647,475.453c-0.288-0.29-0.629-0.518-1.027-0.674
					c-0.4-0.161-0.846-0.239-1.336-0.239c-0.483,0-0.924,0.078-1.326,0.234c-0.399,0.158-0.737,0.38-1.019,0.669
					c-0.281,0.288-0.498,0.636-0.649,1.045c-0.146,0.408-0.224,0.858-0.224,1.349c0,0.485,0.076,0.929,0.219,1.332
					c0.152,0.402,0.369,0.75,0.657,1.048c0.285,0.292,0.627,0.521,1.016,0.676c0.392,0.159,0.835,0.239,1.326,0.239
					c0.492,0,0.937-0.08,1.336-0.234c0.394-0.158,0.735-0.382,1.02-0.675c0.286-0.291,0.502-0.641,0.656-1.05
					c0.146-0.408,0.222-0.855,0.222-1.336c0-0.489-0.075-0.932-0.221-1.339C314.148,476.096,313.933,475.749,313.647,475.453z
					 M312.455,479.368c-0.29,0.372-0.682,0.557-1.171,0.557c-0.324,0-0.605-0.086-0.846-0.253c-0.24-0.168-0.423-0.409-0.553-0.729
					c-0.129-0.317-0.194-0.684-0.194-1.108c0-0.428,0.066-0.803,0.197-1.125c0.131-0.321,0.314-0.563,0.556-0.727
					c0.242-0.164,0.522-0.246,0.84-0.246c0.489,0,0.881,0.182,1.171,0.555c0.289,0.367,0.436,0.881,0.436,1.543
					C312.891,478.487,312.744,478.999,312.455,479.368z"/>
				<path id="XMLID_381_" style="fill:#454258;" d="M323.569,474.813c-0.32-0.173-0.705-0.262-1.146-0.262
					c-0.381,0-0.726,0.081-1.039,0.241c-0.313,0.161-0.607,0.408-0.881,0.738c-0.191-0.326-0.431-0.572-0.725-0.735
					c-0.292-0.162-0.641-0.243-1.048-0.243c-0.394,0-0.748,0.079-1.07,0.241c-0.319,0.156-0.619,0.403-0.903,0.738v-0.153
					c0-0.261-0.074-0.466-0.222-0.616c-0.15-0.145-0.334-0.221-0.557-0.221c-0.227,0-0.412,0.078-0.555,0.239
					c-0.14,0.157-0.21,0.389-0.21,0.694v4.636c0,0.336,0.078,0.591,0.235,0.765c0.156,0.171,0.357,0.257,0.604,0.257
					c0.248,0,0.447-0.087,0.603-0.257c0.15-0.173,0.226-0.428,0.226-0.765v-2.188c0-0.684,0.086-1.206,0.253-1.566
					c0.168-0.369,0.516-0.551,1.048-0.551c0.263,0,0.459,0.072,0.581,0.22c0.122,0.142,0.198,0.331,0.226,0.552
					c0.027,0.226,0.04,0.544,0.04,0.953v2.581c0,0.341,0.078,0.594,0.232,0.767c0.148,0.17,0.349,0.255,0.594,0.255
					c0.254,0,0.455-0.085,0.611-0.255c0.156-0.173,0.231-0.426,0.231-0.767v-2.154c0-0.694,0.062-1.178,0.178-1.452
					c0.109-0.209,0.259-0.383,0.45-0.508c0.192-0.125,0.395-0.192,0.609-0.192c0.264,0,0.463,0.072,0.596,0.215
					c0.128,0.142,0.209,0.319,0.239,0.529c0.029,0.209,0.043,0.486,0.043,0.836v2.725c0,0.336,0.079,0.591,0.235,0.765
					c0.157,0.171,0.356,0.257,0.603,0.257c0.253,0,0.458-0.085,0.612-0.255c0.154-0.173,0.229-0.426,0.229-0.767v-3.163
					c0-0.629-0.068-1.091-0.206-1.385C324.128,475.237,323.888,474.987,323.569,474.813z"/>
			</g>
			<g id="XMLID_366_">
				<path id="XMLID_379_" style="fill:#454258;" d="M245.273,477.444c-0.001-0.004-0.001-0.006-0.001-0.011
					C245.272,477.438,245.272,477.44,245.273,477.444z"/>
				<path id="XMLID_378_" style="fill:#454258;" d="M245.355,477.961c0.001,0,0.001,0,0.001,0c-0.031-0.147-0.055-0.294-0.073-0.438
					C245.301,477.669,245.326,477.816,245.355,477.961z"/>
				<path id="XMLID_377_" style="fill:#454258;" d="M245.891,479.466c-0.004-0.006-0.007-0.013-0.01-0.021
					C245.885,479.452,245.888,479.46,245.891,479.466z"/>
				<path id="XMLID_376_" style="fill:#454258;" d="M245.84,479.366c-0.014-0.027-0.027-0.056-0.041-0.084
					C245.813,479.311,245.826,479.338,245.84,479.366z"/>
				<path id="XMLID_375_" style="fill:#454258;" d="M245.506,478.541c0.079,0.25,0.175,0.492,0.286,0.724
					c-0.113-0.236-0.206-0.479-0.284-0.724H245.506z"/>
				<path id="XMLID_374_" style="fill:#454258;" d="M250.736,470.681l-0.076-0.259c0.299-0.063,0.524-0.329,0.524-0.646
					c0-0.364-0.297-0.659-0.66-0.659c-0.365,0-0.66,0.295-0.66,0.659c0,0.317,0.225,0.583,0.522,0.646l0.084,0.289
					c-1.021,0.14-1.834,0.539-1.834,0.539l0.144,0.441c0.618-0.206,1.153-0.331,1.64-0.383c0.476-0.051,0.834-0.073,1.126-0.073
					c0.314,0,0.544,0.025,0.809,0.069l0.075-0.476C252.429,470.828,251.698,470.603,250.736,470.681z"/>
				<path id="XMLID_373_" style="fill:#454258;" d="M245.453,473.188c-0.017,0.024-0.497,0.465-0.876,1.28
					c-0.016-0.026-0.035-0.051-0.056-0.074c-0.113-0.124-0.272-0.187-0.473-0.184c-0.002,0-0.006,0-0.01,0
					c-0.124,0-0.21-0.042-0.266-0.092c0.055-0.071,0.089-0.16,0.089-0.258c0-0.231-0.187-0.419-0.419-0.419
					c-0.23,0-0.417,0.188-0.417,0.419c0,0.231,0.187,0.417,0.417,0.417c0.037,0,0.071-0.005,0.105-0.012
					c0.102,0.113,0.265,0.214,0.504,0.209c0.123-0.001,0.214,0.03,0.273,0.097c0.07,0.076,0.093,0.185,0.1,0.267
					c-0.001,0.002-0.001,0.004-0.002,0.004c-0.272,0.743-0.195,1.668-0.195,1.668l0.661,0.026c0.013-0.336,0.062-0.926,0.232-1.393
					c0.328-0.906,0.741-1.472,0.757-1.496l0.004-0.005c0.024-0.031,0.047-0.06,0.071-0.089l-0.196-0.142L245.453,473.188z"/>
				<path id="XMLID_372_" style="fill:#454258;" d="M257.294,471.787c-0.23,0-0.418,0.187-0.418,0.417
					c0,0.037,0.006,0.071,0.015,0.104c-0.115,0.104-0.214,0.267-0.211,0.507c0.002,0.123-0.03,0.212-0.096,0.273
					c-0.053,0.047-0.12,0.072-0.185,0.088c-0.492-0.689-1.097-1.109-1.097-1.109l-0.474,0.508c0.358,0.326,0.724,0.734,1.08,1.244
					c0.246,0.352,0.499,0.806,0.71,1.259l0.64-0.304c0,0-0.292-0.722-0.704-1.369c0.071-0.025,0.143-0.064,0.207-0.12
					c0.125-0.113,0.187-0.273,0.183-0.474c-0.001-0.13,0.042-0.218,0.093-0.276c0.071,0.054,0.16,0.089,0.257,0.089
					c0.232,0,0.419-0.187,0.419-0.419C257.712,471.974,257.525,471.787,257.294,471.787z"/>
				<path id="XMLID_371_" style="fill:#454258;" d="M255.633,477.537c-0.88,0.429-2.33,0.996-4.237,1.262
					c-0.749,0.104-1.474,0.142-2.143,0.142c-0.869,0-1.637-0.065-2.226-0.139c-0.672-0.085-1.198-0.188-1.52-0.261
					c0.078,0.245,0.171,0.487,0.284,0.724c0.002,0.006,0.005,0.013,0.008,0.017c0.014,0.027,0.027,0.056,0.041,0.084
					c0.013,0.027,0.027,0.054,0.041,0.079c0.004,0.007,0.007,0.015,0.01,0.021c0.189,0.356,0.417,0.684,0.675,0.968
					c0.9,0.984,1.816,1.139,1.825,1.141l0.015,0.002l0.013,0.005c0.009,0.003,0.821,0.265,2.057,0.265
					c1.216,0,2.409-0.245,3.545-0.729c0.842-0.431,1.639-1.085,2.033-1.668c0.305-0.452,0.526-0.934,0.656-1.434
					c0.07-0.266,0.125-0.693,0.092-1.141C256.555,477.042,256.163,477.279,255.633,477.537z"/>
				<path id="XMLID_367_" style="fill:#454258;" d="M252.322,471.655c-0.264-0.043-0.477-0.068-0.777-0.068
					c-0.279,0-0.626,0.023-1.089,0.071c-0.465,0.049-0.982,0.171-1.583,0.373c-0.842,0.282-1.604,0.724-2.204,1.28l-0.02,0.019
					c-0.089,0.081-0.275,0.254-0.488,0.525c-0.026,0.037-0.408,0.578-0.709,1.408c-0.226,0.622-0.216,1.527-0.216,1.537v0.002
					c0,0.212,0.012,0.423,0.035,0.632c0,0.005,0,0.007,0.001,0.011c0.003,0.027,0.007,0.053,0.01,0.079
					c0.018,0.144,0.043,0.291,0.074,0.438c0.438,0.112,3.048,0.721,5.966,0.314c1.829-0.255,3.218-0.795,4.061-1.204
					c0.701-0.34,1.151-0.647,1.325-0.774c-0.173-0.643-0.651-1.65-1.089-2.279C254.367,472.229,253.016,471.769,252.322,471.655z
					 M248.679,476.914c-0.971,0-1.759-0.787-1.759-1.759c0-0.972,0.788-1.76,1.759-1.76c0.973,0,1.761,0.788,1.761,1.76
					C250.439,476.127,249.652,476.914,248.679,476.914z M253.829,475.617c-0.601,0-1.089-0.489-1.089-1.09
					c0-0.602,0.487-1.089,1.089-1.089c0.601,0,1.089,0.487,1.089,1.089C254.918,475.128,254.429,475.617,253.829,475.617z"/>
			</g>
		</g>
	</g>
</g>
</svg>
